<svg xmlns="http://www.w3.org/2000/svg" width="206.459" height="235.613" viewBox="0 0 206.459 235.613"><defs><style>.a{fill:#fff;stroke:gray;stroke-miterlimit:10;}.b{fill:#a4a4a4;}.c{fill:#a6a6a6;}.d{fill:#939393;}.e{fill:#999;}.f{fill:#b3b3b3;}.g{fill:#d6deeb;}.h{fill:#8c1d40;}.i{fill:#e3a98a;}.j{fill:#ffc627;}.k{fill:#3b3f46;}.l{fill:#9f7964;}.m{fill:#6b1735;}.n{fill:#3b3b3b;}.o{fill:#5a5a5a;}.p{fill:#454545;}.q{fill:#5b5b5b;}</style></defs><line class="a" x2="203" transform="translate(2.832 190.475)"/><g transform="translate(184.745 133.417)"><rect class="b" width="0.524" height="44.565" transform="translate(0 0.035) rotate(-3.865)"/></g><g transform="translate(172.884 56.391)"><rect class="c" width="0.524" height="120.815" transform="translate(0 0.032) rotate(-3.46)"/></g><g transform="translate(183.474 38.9)"><rect class="b" width="0.524" height="140.684"/></g><g transform="translate(188.313 94.328)"><rect class="b" width="84.253" height="0.524" transform="translate(0 84.232) rotate(-88.737)"/></g><g transform="translate(172.34 36.58)"><path class="a" d="M254.389,130.393s-14.624-12.471-10.283-24.916,25.768-5.711,18.96,16.744A15.446,15.446,0,0,1,254.389,130.393Z" transform="translate(-243.301 -99.295)"/></g><g transform="translate(187.373 46.024)"><path class="d" d="M262.684,126.524l-.522-.045,1.133-13.353.694-1.982Z" transform="translate(-262.162 -111.144)"/></g><g transform="translate(180.175 40.608)"><path class="d" d="M253.655,125.464l-.524-.011.427-21.1.456,3.362Z" transform="translate(-253.131 -104.35)"/></g><g transform="translate(175.445 43.802)"><path class="d" d="M249.745,122.838,247.2,108.357l.923,2.222,2.142,12.168Z" transform="translate(-247.197 -108.357)"/></g><g transform="translate(163.943 55.594)"><path class="a" d="M243.01,155.7s-12.674-16.4-6.077-28,49.057-2.009,29.861,39.828-34.028,13.7-34.028,13.7Z" transform="translate(-232.766 -123.151)"/></g><g transform="translate(184.782 71.439)"><path class="b" d="M259.417,189.616l-.506-.135,11.516-43.327,1.373-3.125Z" transform="translate(-258.911 -143.031)"/></g><g transform="translate(181.123 62.291)"><path class="b" d="M254.844,183.164l-.524-.024,2.217-48.832.65-2.755Z" transform="translate(-254.321 -131.553)"/></g><g transform="translate(174.354 62.969)"><path class="b" d="M248,167.321,245.827,132.4l.707,2.93,1.991,31.954Z" transform="translate(-245.827 -132.404)"/></g><g transform="translate(153.98 82.823)"><path class="a" d="M250.021,177.385s-1.91-28.146-18.056-17.777-20.139,51.01,18.056,63.359Z" transform="translate(-220.265 -157.314)"/></g><g transform="translate(169.1 87.099)"><path class="e" d="M256.4,205.531l-16.351-39.511-.815-3.341,17.651,42.651Z" transform="translate(-239.235 -162.679)"/></g><g transform="translate(159.323 97.72)"><path class="e" d="M256.575,211.022c-1.464-.053-3.878-1.879-7.381-5.581-2.73-2.885-6.09-6.891-9.989-11.905C232.573,185,228.5,179.1,228.444,179.01L226.969,176c.06.086,6.027,8.692,12.652,17.212,11.022,14.175,15.314,17.223,16.974,17.282Z" transform="translate(-226.969 -176.004)"/></g><g transform="translate(156.568 115.852)"><path class="e" d="M258.319,220.947c-3.365,0-10.251-3.74-20.465-11.116-7.582-5.475-14.275-11.022-14.341-11.077l2.1,1.033c2.547,2.068,24.914,20.637,32.709,20.637Z" transform="translate(-223.513 -198.753)"/></g><g transform="translate(165.485 135.986)"><path class="e" d="M237.757,224.274c.4.219,2.843.624,9.144,1.71,3.511.6,12.074,2.021,15.751,2.111l-.013.524c-3.762-.092-12.493-1.542-16.072-2.162-2.906-.5-5.854-1.049-8.086-1.5-3.571-.721-3.7-.855-3.781-.943Z" transform="translate(-234.7 -224.014)"/></g><g transform="translate(178.227 112.719)"><path class="a" d="M261.377,246.746a45.226,45.226,0,0,1-10.216-35.657c3.125-21.6,27.432-21.576,27.257-.593S273.846,237.314,261.377,246.746Z" transform="translate(-250.686 -194.823)"/></g><g transform="translate(189.504 116.013)"><path class="f" d="M265.3,246.208l-.461-.125,6.658-44.159.945-2.969-6.653,44.354,12.8-36.454.1,1.342Z" transform="translate(-264.835 -198.955)"/></g><g transform="translate(181.574 117.842)"><path class="f" d="M262.094,247.006l-7.147-34.17-.06-2.631,7.089,33.635-1.9-42.59.773,4.353,1.725,41.266Z" transform="translate(-254.886 -201.25)"/></g><g transform="translate(3.284 26.551)"><path class="a" d="M122.619,86.713c-80.934,0-58.08,108.659-58.08,108.659H180.7S203.553,86.713,122.619,86.713Z" transform="translate(-37.36 -86.713)"/><path class="a" d="M65.3,303.571l3.9,9.739h9.045v-9.368A30.876,30.876,0,0,0,65.3,303.571Z" transform="translate(-38.118 -130.623)"/><path class="a" d="M203.532,303.571l-3.9,9.739h-9.045v-9.368A30.876,30.876,0,0,1,203.532,303.571Z" transform="translate(-63.546 -130.623)"/><rect class="a" width="104.111" height="33.862" transform="translate(33.203 102.832)"/><path class="a" d="M199.537,172.773c-9.9-16.051-30.575-6.419-33.022,13.114s0,56.8,0,56.8H66.4s2.449-37.271,0-56.8-23.124-29.165-33.023-13.114,17.245,22.852,15.733,42.355,7.064,61.065,7.064,61.065c25.14,2.761,60.284,3.725,60.284,3.725s35.143-.964,60.284-3.725c0,0,8.576-41.562,7.065-61.065S209.436,188.823,199.537,172.773Z" transform="translate(-31.198 -102.537)"/><path class="a" d="M16.931,0H87.18a16.931,16.931,0,0,1,16.931,16.931v0a16.93,16.93,0,0,1-16.93,16.93H16.931A16.931,16.931,0,0,1,0,16.931v0A16.931,16.931,0,0,1,16.931,0Z" transform="translate(33.203 111.252)"/><circle class="a" cx="5.768" cy="5.768" r="5.768" transform="translate(8.338 74.485) rotate(-22.694)"/><circle class="a" cx="5.768" cy="5.768" r="5.768" transform="translate(148.652 77.381) rotate(-43.594)"/><path class="a" d="M124.809,203.092a10.838,10.838,0,0,1-1.869.481l-27.072,4.35a10.443,10.443,0,0,1-11.956-8.651l-5.3-33.03a10.433,10.433,0,0,1,8.643-11.957l3.844-.62,23.227-3.721a10.426,10.426,0,0,1,11.949,8.651l5.3,33.03A10.426,10.426,0,0,1,124.809,203.092Z" transform="translate(-40.794 -99.519)"/><path class="a" d="M124.809,204.073a10.839,10.839,0,0,1-1.869.481l-27.072,4.35a10.443,10.443,0,0,1-11.956-8.651l-5.3-33.03a10.433,10.433,0,0,1,8.643-11.957l3.844-.62a.008.008,0,0,0,.008.008S92.424,199.528,124.809,204.073Z" transform="translate(-40.794 -100.501)"/></g><path class="g" d="M91.922,322.112a37.318,37.318,0,0,0-5.708,6.687c-2.7,4.051-9.87,4.267-10.177,9.8s9.747,5.7,15.026,3.9,6.077-7.2,9.269-8.552,4.849-2.443,4.6-5.08a32.112,32.112,0,0,0-2.012-6.916,21.74,21.74,0,0,1-3.149.762A26.1,26.1,0,0,1,91.922,322.112Z" transform="translate(-37.012 -107.904)"/><path class="h" d="M131.859,130.07s-2.024,12.031-3.654,19.979h0a47.671,47.671,0,0,1-1.629,6.577c-.466,1.011-4.263,5.088-8.911,9.874-8.155,8.394-18.93,18.966-18.93,18.966l-4.212-8s9.57-11.218,16.058-18.705c3-3.465,5.345-6.128,5.774-6.513,1.357-1.213,2.931-13.169,5.143-23.021s6.647-15.295,6.647-15.295Z" transform="translate(-40.766 -65.687)"/><path class="i" d="M117.665,177.915c-8.155,8.394-18.93,18.966-18.93,18.966l-4.212-8s9.57-11.218,16.058-18.705A13.612,13.612,0,0,1,117.665,177.915Z" transform="translate(-40.766 -77.102)"/><g transform="translate(116.749 210.638)"><path class="g" d="M186,317.951s2.77,3.062,4.408,4.919,7.911,5.174,7.945,10.688c.037,5.979-4.628,5.456-8.778,5.237s-7.522-3.085-9.269-6.47-6.4-4.275-6.724-7.005,2.154-7.644,2.154-7.644Z" transform="translate(-173.555 -317.675)"/></g><path class="i" d="M176.831,311.29l-.536,5.089s8.662,3.775,10.264.276l-.371-4.532Z" transform="translate(-57.362 -105.741)"/><path class="i" d="M96.442,317.533l-.473,3.683a18.164,18.164,0,0,0,11-.164l.117-3.276Z" transform="translate(-41.059 -107.008)"/><path class="h" d="M175.669,182.094c.3,1.07-55.44,0-55.44,0s15.42-11.223,16.418-14.222-3.925-20.987-4.569-26.841c-.514-4.683-1.8-25.639,1.285-28.839,3.228-3.347,14.849-6.854,14.849-6.854l16.942.63a26.576,26.576,0,0,1,4.8,1.513c2,.928,13.429,5,15.285,10.71s-11.4,24.073-11.4,24.073-.026.825-.066,2.177h0c-.051,1.8-.127,4.543-.2,7.516-.088,3.851-.167,8.089-.167,11.186A110.666,110.666,0,0,0,175.669,182.094Z" transform="translate(-45.983 -63.942)"/><path class="j" d="M165.678,200.9s7.582,11.136,7.689,18.739-2.809,28.682-3.023,32.858-4.14,38.977-4.14,38.977-3.034,2.819-12.136-.714c0,0-2.009-33-2.223-36.537s-.214-19.808-2.249-22.164-14.348-9.744-15.954-11.136-29.586,5.287-32.519,6.047c-7.591,1.969-4.131,15.178-2.452,21.1,2.81,9.907,5.266,45.687,5.266,45.687s-5.407,2.3-14.465.357c0,0-17.785-64.605-18.356-71.029s-.852-17.019,42.977-25.071Z" transform="translate(-35.991 -82.752)"/><path class="i" d="M158.154,59.1s-14.706-3.317-11.348,15.191,6.9,19.964,15.77,16.133,8.078-15.688,8.524-21.5S162.845,59.3,158.154,59.1Z" transform="translate(-51.275 -54.51)"/><path class="i" d="M156.288,105.361s6.513,6.906,16.807.63c0,0-2.3-14.965-1.09-22.253s-13.43,11.294-13.43,11.294c.193.1.32.8.349,1.786a19.959,19.959,0,0,1-.153,2.966C158.467,102.207,157.714,104.765,156.288,105.361Z" transform="translate(-53.301 -59.214)"/><path class="i" d="M171.031,74.772c.194-1.633,3.421-2.232,3.682.217s-1.467,6.745-2.692,6.321S170.764,77.024,171.031,74.772Z" transform="translate(-56.266 -57.449)"/><path class="k" d="M170.166,77.305s-.379-5.831-2.509-6.014-2.458,2.166-2.458,2.166l-2.15.406s.679-5.111-1.447-6-13.779,2.814-15.487,1.314-.9-11.868,2.184-13.288,11.614-4.6,17.862-.369c0,0,4.87-.555,5.592,3.375S171.489,74.382,170.166,77.305Z" transform="translate(-51.058 -53.401)"/><path class="l" d="M159.4,101.813c10.62-3.275,11.419-9.669,11.43-9.769-3.5,6.009-11.277,6.8-11.277,6.8A19.966,19.966,0,0,1,159.4,101.813Z" transform="translate(-53.933 -61.244)"/><path class="i" d="M176.078,107.306s-7.777,15.483-20.341,14.482-2.142-16.56-1.57-16.7C154.794,104.926,167.052,101.872,176.078,107.306Z" transform="translate(-51.937 -63.688)"/><path class="m" d="M112.229,199.438s38.495,4.746,61.817.784l-44.564-5.567S129.22,195.79,112.229,199.438Z" transform="translate(-44.359 -82.069)"/><path class="i" d="M147.622,192.454l-2.868,1.453s.654,4.555,2.224,5.936l3.218-.822S149.525,194.025,147.622,192.454Z" transform="translate(-50.96 -81.623)"/><path class="h" d="M192.9,168.345c-.573.664-8.142,3.708-16.69,7h0c-11.68,4.5-24.854,8.756-24.854,8.756l-3-6.428s13.8-7.5,23.12-12.755c4.4-2.484,7.809-4.467,8.29-4.926,1.5-1.428,1.887-3.717.785-7.71s-3.641-22.344-3.926-24.485.714-7.852,6.068-8.138,8.079,1.226,8.079,1.226,1.344.559,2.343,13.551S194.253,166.775,192.9,168.345Z" transform="translate(-51.69 -66.841)"/><path class="m" d="M186.564,150.4h0c-.051,1.8-.127,4.543-.2,7.516-5.225-12.808-2.206-23.03-2.155-23.2C183.646,138.194,186.523,150.232,186.564,150.4Z" transform="translate(-58.783 -69.905)"/><path class="m" d="M136.153,155.9h0a47.667,47.667,0,0,1-1.629,6.577c-1.785-8.638-.179-19.7-.179-19.7A111.3,111.3,0,0,0,136.153,155.9Z" transform="translate(-48.713 -71.542)"/><path class="i" d="M176.206,186.88h0c-11.68,4.5-25.28,8.893-25.28,8.893l-2.574-6.566s13.8-7.5,23.12-12.755C171.472,176.452,174.863,178.1,176.206,186.88Z" transform="translate(-51.69 -78.375)"/><path class="n" d="M133.378,200.967l-54.715-.805,27.625,14.027Z" transform="translate(-37.547 -83.187)"/><path class="o" d="M112.777,214.393l27.09-10.493v-2.728l-29.231,10.545Z" transform="translate(-44.036 -83.392)"/><g transform="translate(75.344 111.163)"><path class="i" d="M140.675,194.091s-3.418-.532-5.78-1.082c-1.828-.426-6.373.161-7.531,1.334s-4.84,9.348-5.535,9.846.356,1.654,1.58,1.074c0,0,1.122,3.576,3.894,2.237s4.652-4.263,6.1-4.777,9.9-3.113,9.9-3.113S142.853,193.22,140.675,194.091Z" transform="translate(-121.606 -192.87)"/></g><g transform="translate(75.591 112.1)"><path class="i" d="M128.261,194.045a23.947,23.947,0,0,0-2.769,1.533c-.573.473-2.9,2.212-3.458,2.621s.849,1.573,5-.226S128.261,194.045,128.261,194.045Z" transform="translate(-121.916 -194.045)"/></g><path class="p" d="M95.819,206.445,79.543,162.01l-52.466.856,15.511,40.949Z" transform="translate(-27.077 -75.444)"/><path class="q" d="M69.574,185.619c1.6,3.2,1.117,6.686-1.08,7.786s-5.277-.6-6.878-3.805-1.118-6.686,1.08-7.786S67.974,182.418,69.574,185.619Z" transform="translate(-33.895 -79.395)"/><path class="a" d="M235.162,275.494l8.446,26.914h18.874l8.446-26.914Z" transform="translate(-69.309 -98.476)"/></svg>